<?xml version="1.0" encoding="utf-8" standalone="no"?>
<!DOCTYPE svg PUBLIC "-//W3C//DTD SVG 1.1//EN"
  "http://www.w3.org/Graphics/SVG/1.1/DTD/svg11.dtd">
<svg xmlns:xlink="http://www.w3.org/1999/xlink" width="855.61375pt" height="422.889687pt" viewBox="0 0 855.61375 422.889687" xmlns="http://www.w3.org/2000/svg" version="1.1">
 <metadata>
  <rdf:RDF xmlns:dc="http://purl.org/dc/elements/1.1/" xmlns:cc="http://creativecommons.org/ns#" xmlns:rdf="http://www.w3.org/1999/02/22-rdf-syntax-ns#">
   <cc:Work>
    <dc:type rdf:resource="http://purl.org/dc/dcmitype/StillImage"/>
    <dc:date>2025-12-05T11:53:22.447800</dc:date>
    <dc:format>image/svg+xml</dc:format>
    <dc:creator>
     <cc:Agent>
      <dc:title>Matplotlib v3.10.7, https://matplotlib.org/</dc:title>
     </cc:Agent>
    </dc:creator>
   </cc:Work>
  </rdf:RDF>
 </metadata>
 <defs>
  <style type="text/css">*{stroke-linejoin: round; stroke-linecap: butt}</style>
 </defs>
 <g id="figure_1">
  <g id="patch_1">
   <path d="M 0 422.889687 
L 855.61375 422.889687 
L 855.61375 0 
L 0 0 
z
" style="fill: #ffffff"/>
  </g>
  <g id="axes_1">
   <g id="patch_2">
    <path d="M 55.26375 383.397812 
L 848.41375 383.397812 
L 848.41375 37.837812 
L 55.26375 37.837812 
z
" style="fill: #ffffff"/>
   </g>
   <g id="matplotlib.axis_1">
    <g id="xtick_1">
     <g id="line2d_1">
      <path d="M 226.47234 383.397812 
L 226.47234 37.837812 
" clip-path="url(#pa12842c20c)" style="fill: none; stroke-dasharray: 2.96,1.28; stroke-dashoffset: 0; stroke: #d0d7de; stroke-opacity: 0.4; stroke-width: 0.8"/>
     </g>
     <g id="line2d_2">
      <defs>
       <path id="m9b21ddd8ee" d="M 0 0 
L 0 3.5 
" style="stroke: #24292f; stroke-width: 0.8"/>
      </defs>
      <g>
       <use xlink:href="#m9b21ddd8ee" x="226.47234" y="383.397812" style="fill: #24292f; stroke: #24292f; stroke-width: 0.8"/>
      </g>
     </g>
     <g id="text_1">
      <!-- 50 -->
      <g style="fill: #24292f" transform="translate(220.10984 397.99625) scale(0.1 -0.1)">
       <defs>
        <path id="DejaVuSans-35" d="M 691 4666 
L 3169 4666 
L 3169 4134 
L 1269 4134 
L 1269 2991 
Q 1406 3038 1543 3061 
Q 1681 3084 1819 3084 
Q 2600 3084 3056 2656 
Q 3513 2228 3513 1497 
Q 3513 744 3044 326 
Q 2575 -91 1722 -91 
Q 1428 -91 1123 -41 
Q 819 9 494 109 
L 494 744 
Q 775 591 1075 516 
Q 1375 441 1709 441 
Q 2250 441 2565 725 
Q 2881 1009 2881 1497 
Q 2881 1984 2565 2268 
Q 2250 2553 1709 2553 
Q 1456 2553 1204 2497 
Q 953 2441 691 2322 
L 691 4666 
z
" transform="scale(0.015625)"/>
        <path id="DejaVuSans-30" d="M 2034 4250 
Q 1547 4250 1301 3770 
Q 1056 3291 1056 2328 
Q 1056 1369 1301 889 
Q 1547 409 2034 409 
Q 2525 409 2770 889 
Q 3016 1369 3016 2328 
Q 3016 3291 2770 3770 
Q 2525 4250 2034 4250 
z
M 2034 4750 
Q 2819 4750 3233 4129 
Q 3647 3509 3647 2328 
Q 3647 1150 3233 529 
Q 2819 -91 2034 -91 
Q 1250 -91 836 529 
Q 422 1150 422 2328 
Q 422 3509 836 4129 
Q 1250 4750 2034 4750 
z
" transform="scale(0.015625)"/>
       </defs>
       <use xlink:href="#DejaVuSans-35"/>
       <use xlink:href="#DejaVuSans-30" transform="translate(63.623047 0)"/>
      </g>
     </g>
    </g>
    <g id="xtick_2">
     <g id="line2d_3">
      <path d="M 401.174983 383.397812 
L 401.174983 37.837812 
" clip-path="url(#pa12842c20c)" style="fill: none; stroke-dasharray: 2.96,1.28; stroke-dashoffset: 0; stroke: #d0d7de; stroke-opacity: 0.4; stroke-width: 0.8"/>
     </g>
     <g id="line2d_4">
      <g>
       <use xlink:href="#m9b21ddd8ee" x="401.174983" y="383.397812" style="fill: #24292f; stroke: #24292f; stroke-width: 0.8"/>
      </g>
     </g>
     <g id="text_2">
      <!-- 100 -->
      <g style="fill: #24292f" transform="translate(391.631233 397.99625) scale(0.1 -0.1)">
       <defs>
        <path id="DejaVuSans-31" d="M 794 531 
L 1825 531 
L 1825 4091 
L 703 3866 
L 703 4441 
L 1819 4666 
L 2450 4666 
L 2450 531 
L 3481 531 
L 3481 0 
L 794 0 
L 794 531 
z
" transform="scale(0.015625)"/>
       </defs>
       <use xlink:href="#DejaVuSans-31"/>
       <use xlink:href="#DejaVuSans-30" transform="translate(63.623047 0)"/>
       <use xlink:href="#DejaVuSans-30" transform="translate(127.246094 0)"/>
      </g>
     </g>
    </g>
    <g id="xtick_3">
     <g id="line2d_5">
      <path d="M 575.877627 383.397812 
L 575.877627 37.837812 
" clip-path="url(#pa12842c20c)" style="fill: none; stroke-dasharray: 2.96,1.28; stroke-dashoffset: 0; stroke: #d0d7de; stroke-opacity: 0.4; stroke-width: 0.8"/>
     </g>
     <g id="line2d_6">
      <g>
       <use xlink:href="#m9b21ddd8ee" x="575.877627" y="383.397812" style="fill: #24292f; stroke: #24292f; stroke-width: 0.8"/>
      </g>
     </g>
     <g id="text_3">
      <!-- 150 -->
      <g style="fill: #24292f" transform="translate(566.333877 397.99625) scale(0.1 -0.1)">
       <use xlink:href="#DejaVuSans-31"/>
       <use xlink:href="#DejaVuSans-35" transform="translate(63.623047 0)"/>
       <use xlink:href="#DejaVuSans-30" transform="translate(127.246094 0)"/>
      </g>
     </g>
    </g>
    <g id="xtick_4">
     <g id="line2d_7">
      <path d="M 750.58027 383.397812 
L 750.58027 37.837812 
" clip-path="url(#pa12842c20c)" style="fill: none; stroke-dasharray: 2.96,1.28; stroke-dashoffset: 0; stroke: #d0d7de; stroke-opacity: 0.4; stroke-width: 0.8"/>
     </g>
     <g id="line2d_8">
      <g>
       <use xlink:href="#m9b21ddd8ee" x="750.58027" y="383.397812" style="fill: #24292f; stroke: #24292f; stroke-width: 0.8"/>
      </g>
     </g>
     <g id="text_4">
      <!-- 200 -->
      <g style="fill: #24292f" transform="translate(741.03652 397.99625) scale(0.1 -0.1)">
       <defs>
        <path id="DejaVuSans-32" d="M 1228 531 
L 3431 531 
L 3431 0 
L 469 0 
L 469 531 
Q 828 903 1448 1529 
Q 2069 2156 2228 2338 
Q 2531 2678 2651 2914 
Q 2772 3150 2772 3378 
Q 2772 3750 2511 3984 
Q 2250 4219 1831 4219 
Q 1534 4219 1204 4116 
Q 875 4013 500 3803 
L 500 4441 
Q 881 4594 1212 4672 
Q 1544 4750 1819 4750 
Q 2544 4750 2975 4387 
Q 3406 4025 3406 3419 
Q 3406 3131 3298 2873 
Q 3191 2616 2906 2266 
Q 2828 2175 2409 1742 
Q 1991 1309 1228 531 
z
" transform="scale(0.015625)"/>
       </defs>
       <use xlink:href="#DejaVuSans-32"/>
       <use xlink:href="#DejaVuSans-30" transform="translate(63.623047 0)"/>
       <use xlink:href="#DejaVuSans-30" transform="translate(127.246094 0)"/>
      </g>
     </g>
    </g>
    <g id="text_5">
     <!-- Generation -->
     <g style="fill: #24292f" transform="translate(414.1775 413.194062) scale(0.12 -0.12)">
      <defs>
       <path id="DejaVuSans-Bold-47" d="M 4781 347 
Q 4331 128 3847 18 
Q 3363 -91 2847 -91 
Q 1681 -91 1000 561 
Q 319 1213 319 2328 
Q 319 3456 1012 4103 
Q 1706 4750 2913 4750 
Q 3378 4750 3804 4662 
Q 4231 4575 4609 4403 
L 4609 3438 
Q 4219 3659 3833 3768 
Q 3447 3878 3059 3878 
Q 2341 3878 1952 3476 
Q 1563 3075 1563 2328 
Q 1563 1588 1938 1184 
Q 2313 781 3003 781 
Q 3191 781 3352 804 
Q 3513 828 3641 878 
L 3641 1784 
L 2906 1784 
L 2906 2591 
L 4781 2591 
L 4781 347 
z
" transform="scale(0.015625)"/>
       <path id="DejaVuSans-Bold-65" d="M 4031 1759 
L 4031 1441 
L 1416 1441 
Q 1456 1047 1700 850 
Q 1944 653 2381 653 
Q 2734 653 3104 758 
Q 3475 863 3866 1075 
L 3866 213 
Q 3469 63 3072 -14 
Q 2675 -91 2278 -91 
Q 1328 -91 801 392 
Q 275 875 275 1747 
Q 275 2603 792 3093 
Q 1309 3584 2216 3584 
Q 3041 3584 3536 3087 
Q 4031 2591 4031 1759 
z
M 2881 2131 
Q 2881 2450 2695 2645 
Q 2509 2841 2209 2841 
Q 1884 2841 1681 2658 
Q 1478 2475 1428 2131 
L 2881 2131 
z
" transform="scale(0.015625)"/>
       <path id="DejaVuSans-Bold-6e" d="M 4056 2131 
L 4056 0 
L 2931 0 
L 2931 347 
L 2931 1631 
Q 2931 2084 2911 2256 
Q 2891 2428 2841 2509 
Q 2775 2619 2662 2680 
Q 2550 2741 2406 2741 
Q 2056 2741 1856 2470 
Q 1656 2200 1656 1722 
L 1656 0 
L 538 0 
L 538 3500 
L 1656 3500 
L 1656 2988 
Q 1909 3294 2193 3439 
Q 2478 3584 2822 3584 
Q 3428 3584 3742 3212 
Q 4056 2841 4056 2131 
z
" transform="scale(0.015625)"/>
       <path id="DejaVuSans-Bold-72" d="M 3138 2547 
Q 2991 2616 2845 2648 
Q 2700 2681 2553 2681 
Q 2122 2681 1889 2404 
Q 1656 2128 1656 1613 
L 1656 0 
L 538 0 
L 538 3500 
L 1656 3500 
L 1656 2925 
Q 1872 3269 2151 3426 
Q 2431 3584 2822 3584 
Q 2878 3584 2943 3579 
Q 3009 3575 3134 3559 
L 3138 2547 
z
" transform="scale(0.015625)"/>
       <path id="DejaVuSans-Bold-61" d="M 2106 1575 
Q 1756 1575 1579 1456 
Q 1403 1338 1403 1106 
Q 1403 894 1545 773 
Q 1688 653 1941 653 
Q 2256 653 2472 879 
Q 2688 1106 2688 1447 
L 2688 1575 
L 2106 1575 
z
M 3816 1997 
L 3816 0 
L 2688 0 
L 2688 519 
Q 2463 200 2181 54 
Q 1900 -91 1497 -91 
Q 953 -91 614 226 
Q 275 544 275 1050 
Q 275 1666 698 1953 
Q 1122 2241 2028 2241 
L 2688 2241 
L 2688 2328 
Q 2688 2594 2478 2717 
Q 2269 2841 1825 2841 
Q 1466 2841 1156 2769 
Q 847 2697 581 2553 
L 581 3406 
Q 941 3494 1303 3539 
Q 1666 3584 2028 3584 
Q 2975 3584 3395 3211 
Q 3816 2838 3816 1997 
z
" transform="scale(0.015625)"/>
       <path id="DejaVuSans-Bold-74" d="M 1759 4494 
L 1759 3500 
L 2913 3500 
L 2913 2700 
L 1759 2700 
L 1759 1216 
Q 1759 972 1856 886 
Q 1953 800 2241 800 
L 2816 800 
L 2816 0 
L 1856 0 
Q 1194 0 917 276 
Q 641 553 641 1216 
L 641 2700 
L 84 2700 
L 84 3500 
L 641 3500 
L 641 4494 
L 1759 4494 
z
" transform="scale(0.015625)"/>
       <path id="DejaVuSans-Bold-69" d="M 538 3500 
L 1656 3500 
L 1656 0 
L 538 0 
L 538 3500 
z
M 538 4863 
L 1656 4863 
L 1656 3950 
L 538 3950 
L 538 4863 
z
" transform="scale(0.015625)"/>
       <path id="DejaVuSans-Bold-6f" d="M 2203 2784 
Q 1831 2784 1636 2517 
Q 1441 2250 1441 1747 
Q 1441 1244 1636 976 
Q 1831 709 2203 709 
Q 2569 709 2762 976 
Q 2956 1244 2956 1747 
Q 2956 2250 2762 2517 
Q 2569 2784 2203 2784 
z
M 2203 3584 
Q 3106 3584 3614 3096 
Q 4122 2609 4122 1747 
Q 4122 884 3614 396 
Q 3106 -91 2203 -91 
Q 1297 -91 786 396 
Q 275 884 275 1747 
Q 275 2609 786 3096 
Q 1297 3584 2203 3584 
z
" transform="scale(0.015625)"/>
      </defs>
      <use xlink:href="#DejaVuSans-Bold-47"/>
      <use xlink:href="#DejaVuSans-Bold-65" transform="translate(82.080078 0)"/>
      <use xlink:href="#DejaVuSans-Bold-6e" transform="translate(149.902344 0)"/>
      <use xlink:href="#DejaVuSans-Bold-65" transform="translate(221.09375 0)"/>
      <use xlink:href="#DejaVuSans-Bold-72" transform="translate(288.916016 0)"/>
      <use xlink:href="#DejaVuSans-Bold-61" transform="translate(338.232422 0)"/>
      <use xlink:href="#DejaVuSans-Bold-74" transform="translate(405.712891 0)"/>
      <use xlink:href="#DejaVuSans-Bold-69" transform="translate(453.515625 0)"/>
      <use xlink:href="#DejaVuSans-Bold-6f" transform="translate(487.792969 0)"/>
      <use xlink:href="#DejaVuSans-Bold-6e" transform="translate(556.494141 0)"/>
     </g>
    </g>
   </g>
   <g id="matplotlib.axis_2">
    <g id="ytick_1">
     <g id="line2d_9">
      <path d="M 55.26375 383.397812 
L 848.41375 383.397812 
" clip-path="url(#pa12842c20c)" style="fill: none; stroke-dasharray: 2.96,1.28; stroke-dashoffset: 0; stroke: #d0d7de; stroke-opacity: 0.4; stroke-width: 0.8"/>
     </g>
     <g id="line2d_10">
      <defs>
       <path id="m0f6b3f0a9f" d="M 0 0 
L -3.5 0 
" style="stroke: #24292f; stroke-width: 0.8"/>
      </defs>
      <g>
       <use xlink:href="#m0f6b3f0a9f" x="55.26375" y="383.397812" style="fill: #24292f; stroke: #24292f; stroke-width: 0.8"/>
      </g>
     </g>
     <g id="text_6">
      <!-- 0 -->
      <g style="fill: #24292f" transform="translate(41.90125 387.197031) scale(0.1 -0.1)">
       <use xlink:href="#DejaVuSans-30"/>
      </g>
     </g>
    </g>
    <g id="ytick_2">
     <g id="line2d_11">
      <path d="M 55.26375 319.541919 
L 848.41375 319.541919 
" clip-path="url(#pa12842c20c)" style="fill: none; stroke-dasharray: 2.96,1.28; stroke-dashoffset: 0; stroke: #d0d7de; stroke-opacity: 0.4; stroke-width: 0.8"/>
     </g>
     <g id="line2d_12">
      <g>
       <use xlink:href="#m0f6b3f0a9f" x="55.26375" y="319.541919" style="fill: #24292f; stroke: #24292f; stroke-width: 0.8"/>
      </g>
     </g>
     <g id="text_7">
      <!-- 500 -->
      <g style="fill: #24292f" transform="translate(29.17625 323.341138) scale(0.1 -0.1)">
       <use xlink:href="#DejaVuSans-35"/>
       <use xlink:href="#DejaVuSans-30" transform="translate(63.623047 0)"/>
       <use xlink:href="#DejaVuSans-30" transform="translate(127.246094 0)"/>
      </g>
     </g>
    </g>
    <g id="ytick_3">
     <g id="line2d_13">
      <path d="M 55.26375 255.686025 
L 848.41375 255.686025 
" clip-path="url(#pa12842c20c)" style="fill: none; stroke-dasharray: 2.96,1.28; stroke-dashoffset: 0; stroke: #d0d7de; stroke-opacity: 0.4; stroke-width: 0.8"/>
     </g>
     <g id="line2d_14">
      <g>
       <use xlink:href="#m0f6b3f0a9f" x="55.26375" y="255.686025" style="fill: #24292f; stroke: #24292f; stroke-width: 0.8"/>
      </g>
     </g>
     <g id="text_8">
      <!-- 1000 -->
      <g style="fill: #24292f" transform="translate(22.81375 259.485244) scale(0.1 -0.1)">
       <use xlink:href="#DejaVuSans-31"/>
       <use xlink:href="#DejaVuSans-30" transform="translate(63.623047 0)"/>
       <use xlink:href="#DejaVuSans-30" transform="translate(127.246094 0)"/>
       <use xlink:href="#DejaVuSans-30" transform="translate(190.869141 0)"/>
      </g>
     </g>
    </g>
    <g id="ytick_4">
     <g id="line2d_15">
      <path d="M 55.26375 191.830131 
L 848.41375 191.830131 
" clip-path="url(#pa12842c20c)" style="fill: none; stroke-dasharray: 2.96,1.28; stroke-dashoffset: 0; stroke: #d0d7de; stroke-opacity: 0.4; stroke-width: 0.8"/>
     </g>
     <g id="line2d_16">
      <g>
       <use xlink:href="#m0f6b3f0a9f" x="55.26375" y="191.830131" style="fill: #24292f; stroke: #24292f; stroke-width: 0.8"/>
      </g>
     </g>
     <g id="text_9">
      <!-- 1500 -->
      <g style="fill: #24292f" transform="translate(22.81375 195.62935) scale(0.1 -0.1)">
       <use xlink:href="#DejaVuSans-31"/>
       <use xlink:href="#DejaVuSans-35" transform="translate(63.623047 0)"/>
       <use xlink:href="#DejaVuSans-30" transform="translate(127.246094 0)"/>
       <use xlink:href="#DejaVuSans-30" transform="translate(190.869141 0)"/>
      </g>
     </g>
    </g>
    <g id="ytick_5">
     <g id="line2d_17">
      <path d="M 55.26375 127.974238 
L 848.41375 127.974238 
" clip-path="url(#pa12842c20c)" style="fill: none; stroke-dasharray: 2.96,1.28; stroke-dashoffset: 0; stroke: #d0d7de; stroke-opacity: 0.4; stroke-width: 0.8"/>
     </g>
     <g id="line2d_18">
      <g>
       <use xlink:href="#m0f6b3f0a9f" x="55.26375" y="127.974238" style="fill: #24292f; stroke: #24292f; stroke-width: 0.8"/>
      </g>
     </g>
     <g id="text_10">
      <!-- 2000 -->
      <g style="fill: #24292f" transform="translate(22.81375 131.773457) scale(0.1 -0.1)">
       <use xlink:href="#DejaVuSans-32"/>
       <use xlink:href="#DejaVuSans-30" transform="translate(63.623047 0)"/>
       <use xlink:href="#DejaVuSans-30" transform="translate(127.246094 0)"/>
       <use xlink:href="#DejaVuSans-30" transform="translate(190.869141 0)"/>
      </g>
     </g>
    </g>
    <g id="ytick_6">
     <g id="line2d_19">
      <path d="M 55.26375 64.118344 
L 848.41375 64.118344 
" clip-path="url(#pa12842c20c)" style="fill: none; stroke-dasharray: 2.96,1.28; stroke-dashoffset: 0; stroke: #d0d7de; stroke-opacity: 0.4; stroke-width: 0.8"/>
     </g>
     <g id="line2d_20">
      <g>
       <use xlink:href="#m0f6b3f0a9f" x="55.26375" y="64.118344" style="fill: #24292f; stroke: #24292f; stroke-width: 0.8"/>
      </g>
     </g>
     <g id="text_11">
      <!-- 2500 -->
      <g style="fill: #24292f" transform="translate(22.81375 67.917563) scale(0.1 -0.1)">
       <use xlink:href="#DejaVuSans-32"/>
       <use xlink:href="#DejaVuSans-35" transform="translate(63.623047 0)"/>
       <use xlink:href="#DejaVuSans-30" transform="translate(127.246094 0)"/>
       <use xlink:href="#DejaVuSans-30" transform="translate(190.869141 0)"/>
      </g>
     </g>
    </g>
    <g id="text_12">
     <!-- Score -->
     <g style="fill: #24292f" transform="translate(16.318125 229.64625) rotate(-90) scale(0.12 -0.12)">
      <defs>
       <path id="DejaVuSans-Bold-53" d="M 3834 4519 
L 3834 3531 
Q 3450 3703 3084 3790 
Q 2719 3878 2394 3878 
Q 1963 3878 1756 3759 
Q 1550 3641 1550 3391 
Q 1550 3203 1689 3098 
Q 1828 2994 2194 2919 
L 2706 2816 
Q 3484 2659 3812 2340 
Q 4141 2022 4141 1434 
Q 4141 663 3683 286 
Q 3225 -91 2284 -91 
Q 1841 -91 1394 -6 
Q 947 78 500 244 
L 500 1259 
Q 947 1022 1364 901 
Q 1781 781 2169 781 
Q 2563 781 2772 912 
Q 2981 1044 2981 1288 
Q 2981 1506 2839 1625 
Q 2697 1744 2272 1838 
L 1806 1941 
Q 1106 2091 782 2419 
Q 459 2747 459 3303 
Q 459 4000 909 4375 
Q 1359 4750 2203 4750 
Q 2588 4750 2994 4692 
Q 3400 4634 3834 4519 
z
" transform="scale(0.015625)"/>
       <path id="DejaVuSans-Bold-63" d="M 3366 3391 
L 3366 2478 
Q 3138 2634 2908 2709 
Q 2678 2784 2431 2784 
Q 1963 2784 1702 2511 
Q 1441 2238 1441 1747 
Q 1441 1256 1702 982 
Q 1963 709 2431 709 
Q 2694 709 2930 787 
Q 3166 866 3366 1019 
L 3366 103 
Q 3103 6 2833 -42 
Q 2563 -91 2291 -91 
Q 1344 -91 809 395 
Q 275 881 275 1747 
Q 275 2613 809 3098 
Q 1344 3584 2291 3584 
Q 2566 3584 2833 3536 
Q 3100 3488 3366 3391 
z
" transform="scale(0.015625)"/>
      </defs>
      <use xlink:href="#DejaVuSans-Bold-53"/>
      <use xlink:href="#DejaVuSans-Bold-63" transform="translate(72.021484 0)"/>
      <use xlink:href="#DejaVuSans-Bold-6f" transform="translate(131.298828 0)"/>
      <use xlink:href="#DejaVuSans-Bold-72" transform="translate(200 0)"/>
      <use xlink:href="#DejaVuSans-Bold-65" transform="translate(249.316406 0)"/>
     </g>
    </g>
   </g>
   <g id="FillBetweenPolyCollection_1">
    <defs>
     <path id="m2da464ae5c" d="M 55.26375 -39.721756 
L 55.26375 -39.491875 
L 58.757803 -39.491875 
L 62.251856 -39.491875 
L 65.745909 -39.491875 
L 69.239961 -39.491875 
L 72.734014 -39.491875 
L 76.228067 -39.491875 
L 79.72212 -39.491875 
L 83.216173 -39.491875 
L 86.710226 -39.491875 
L 90.204279 -39.491875 
L 93.698331 -39.491875 
L 97.192384 -39.491875 
L 100.686437 -39.491875 
L 104.18049 -39.491875 
L 107.674543 -39.491875 
L 111.168596 -39.491875 
L 114.662649 -39.491875 
L 118.156702 -39.491875 
L 121.650754 -39.491875 
L 125.144807 -39.491875 
L 128.63886 -39.491875 
L 132.132913 -39.491875 
L 135.626966 -39.491875 
L 139.121019 -39.491875 
L 142.615072 -39.491875 
L 146.109124 -39.491875 
L 149.603177 -39.491875 
L 153.09723 -39.491875 
L 156.591283 -39.491875 
L 160.085336 -39.491875 
L 163.579389 -39.491875 
L 167.073442 -39.491875 
L 170.567494 -39.491875 
L 174.061547 -39.491875 
L 177.5556 -39.491875 
L 181.049653 -39.491875 
L 184.543706 -39.491875 
L 188.037759 -39.491875 
L 191.531812 -39.491875 
L 195.025865 -39.491875 
L 198.519917 -39.491875 
L 202.01397 -39.491875 
L 205.508023 -39.491875 
L 209.002076 -39.491875 
L 212.496129 -39.491875 
L 215.990182 -39.491875 
L 219.484235 -39.491875 
L 222.978287 -39.491875 
L 226.47234 -39.491875 
L 229.966393 -39.491875 
L 233.460446 -39.491875 
L 236.954499 -39.491875 
L 240.448552 -39.491875 
L 243.942605 -39.491875 
L 247.436657 -39.491875 
L 250.93071 -39.491875 
L 254.424763 -39.491875 
L 257.918816 -39.491875 
L 261.412869 -39.491875 
L 264.906922 -39.491875 
L 268.400975 -39.491875 
L 271.895028 -39.491875 
L 275.38908 -39.491875 
L 278.883133 -39.491875 
L 282.377186 -39.491875 
L 285.871239 -39.491875 
L 289.365292 -39.491875 
L 292.859345 -39.491875 
L 296.353398 -39.491875 
L 299.84745 -39.491875 
L 303.341503 -39.491875 
L 306.835556 -39.491875 
L 310.329609 -39.491875 
L 313.823662 -39.491875 
L 317.317715 -39.491875 
L 320.811768 -39.491875 
L 324.30582 -39.491875 
L 327.799873 -39.491875 
L 331.293926 -39.491875 
L 334.787979 -39.491875 
L 338.282032 -39.491875 
L 341.776085 -39.491875 
L 345.270138 -39.491875 
L 348.764191 -39.491875 
L 352.258243 -39.491875 
L 355.752296 -39.491875 
L 359.246349 -39.491875 
L 362.740402 -39.491875 
L 366.234455 -39.491875 
L 369.728508 -39.491875 
L 373.222561 -39.491875 
L 376.716613 -39.491875 
L 380.210666 -39.491875 
L 383.704719 -39.491875 
L 387.198772 -39.491875 
L 390.692825 -39.491875 
L 394.186878 -39.491875 
L 397.680931 -39.491875 
L 401.174983 -39.491875 
L 404.669036 -39.491875 
L 408.163089 -39.491875 
L 411.657142 -39.491875 
L 415.151195 -39.491875 
L 418.645248 -39.491875 
L 422.139301 -39.491875 
L 425.633354 -39.491875 
L 429.127406 -39.491875 
L 432.621459 -39.491875 
L 436.115512 -39.491875 
L 439.609565 -39.491875 
L 443.103618 -39.491875 
L 446.597671 -39.491875 
L 450.091724 -39.491875 
L 453.585776 -39.491875 
L 457.079829 -39.491875 
L 460.573882 -39.491875 
L 464.067935 -39.491875 
L 467.561988 -39.491875 
L 471.056041 -39.491875 
L 474.550094 -39.491875 
L 478.044146 -39.491875 
L 481.538199 -39.491875 
L 485.032252 -39.491875 
L 488.526305 -39.491875 
L 492.020358 -39.491875 
L 495.514411 -39.491875 
L 499.008464 -39.491875 
L 502.502517 -39.491875 
L 505.996569 -39.491875 
L 509.490622 -39.491875 
L 512.984675 -39.491875 
L 516.478728 -39.491875 
L 519.972781 -39.491875 
L 523.466834 -39.491875 
L 526.960887 -39.491875 
L 530.454939 -39.491875 
L 533.948992 -39.491875 
L 537.443045 -39.491875 
L 540.937098 -39.491875 
L 544.431151 -39.491875 
L 547.925204 -39.491875 
L 551.419257 -39.491875 
L 554.913309 -39.491875 
L 558.407362 -39.491875 
L 561.901415 -39.491875 
L 565.395468 -39.491875 
L 568.889521 -39.491875 
L 572.383574 -39.491875 
L 575.877627 -39.491875 
L 579.37168 -39.491875 
L 582.865732 -39.491875 
L 586.359785 -39.491875 
L 589.853838 -39.491875 
L 593.347891 -39.491875 
L 596.841944 -39.491875 
L 600.335997 -39.491875 
L 603.83005 -39.491875 
L 607.324102 -39.491875 
L 610.818155 -39.491875 
L 614.312208 -39.491875 
L 617.806261 -39.491875 
L 621.300314 -39.491875 
L 624.794367 -39.491875 
L 628.28842 -39.491875 
L 631.782472 -39.491875 
L 635.276525 -39.491875 
L 638.770578 -39.491875 
L 642.264631 -39.491875 
L 645.758684 -39.491875 
L 649.252737 -39.491875 
L 652.74679 -39.491875 
L 656.240843 -39.491875 
L 659.734895 -39.491875 
L 663.228948 -39.491875 
L 666.723001 -39.491875 
L 670.217054 -39.491875 
L 673.711107 -39.491875 
L 677.20516 -39.491875 
L 680.699213 -39.491875 
L 684.193265 -39.491875 
L 687.687318 -39.491875 
L 691.181371 -39.491875 
L 694.675424 -39.491875 
L 698.169477 -39.491875 
L 701.66353 -39.491875 
L 705.157583 -39.491875 
L 708.651635 -39.491875 
L 712.145688 -39.491875 
L 715.639741 -39.491875 
L 719.133794 -39.491875 
L 722.627847 -39.491875 
L 726.1219 -39.491875 
L 729.615953 -39.491875 
L 733.110006 -39.491875 
L 736.604058 -39.491875 
L 740.098111 -39.491875 
L 743.592164 -39.491875 
L 747.086217 -39.491875 
L 750.58027 -39.491875 
L 754.074323 -39.491875 
L 757.568376 -39.491875 
L 761.062428 -39.491875 
L 764.556481 -39.491875 
L 768.050534 -39.491875 
L 771.544587 -39.491875 
L 775.03864 -39.491875 
L 778.532693 -39.491875 
L 782.026746 -39.491875 
L 785.520798 -39.491875 
L 789.014851 -39.491875 
L 792.508904 -39.491875 
L 796.002957 -39.491875 
L 799.49701 -39.491875 
L 802.991063 -39.491875 
L 806.485116 -39.491875 
L 809.979169 -39.491875 
L 813.473221 -39.491875 
L 816.967274 -39.491875 
L 820.461327 -39.491875 
L 823.95538 -39.491875 
L 827.449433 -39.491875 
L 830.943486 -39.491875 
L 834.437539 -39.491875 
L 837.931591 -39.491875 
L 841.425644 -39.491875 
L 844.919697 -39.491875 
L 848.41375 -39.491875 
L 848.41375 -318.235622 
L 848.41375 -318.235622 
L 844.919697 -317.494894 
L 841.425644 -263.421723 
L 837.931591 -298.133787 
L 834.437539 -245.848581 
L 830.943486 -311.109304 
L 827.449433 -283.727897 
L 823.95538 -279.538951 
L 820.461327 -312.130999 
L 816.967274 -327.09882 
L 813.473221 -353.63733 
L 809.979169 -260.509894 
L 806.485116 -262.885333 
L 802.991063 -310.904965 
L 799.49701 -287.559251 
L 796.002957 -304.876969 
L 792.508904 -302.654784 
L 789.014851 -280.94378 
L 785.520798 -309.372424 
L 782.026746 -255.631304 
L 778.532693 -305.438901 
L 775.03864 -301.275497 
L 771.544587 -268.785618 
L 768.050534 -322.092518 
L 764.556481 -281.275831 
L 761.062428 -252.080916 
L 757.568376 -272.336006 
L 754.074323 -291.824824 
L 750.58027 -271.95287 
L 747.086217 -230.701963 
L 743.592164 -277.80207 
L 740.098111 -273.970717 
L 736.604058 -243.038922 
L 733.110006 -255.784558 
L 729.615953 -251.008137 
L 726.1219 -254.686237 
L 722.627847 -246.359428 
L 719.133794 -255.069372 
L 715.639741 -227.381457 
L 712.145688 -227.151575 
L 708.651635 -283.421389 
L 705.157583 -272.974565 
L 701.66353 -259.564827 
L 698.169477 -262.451113 
L 694.675424 -267.815008 
L 691.181371 -312.156541 
L 687.687318 -290.343368 
L 684.193265 -252.259713 
L 680.699213 -268.04489 
L 677.20516 -296.141483 
L 673.711107 -231.238353 
L 670.217054 -248.556071 
L 666.723001 -231.187268 
L 663.228948 -277.189054 
L 659.734895 -297.801736 
L 656.240843 -251.518984 
L 652.74679 -249.347884 
L 649.252737 -262.400029 
L 645.758684 -236.0914 
L 642.264631 -288.63203 
L 638.770578 -268.683449 
L 635.276525 -259.079522 
L 631.782472 -239.028772 
L 628.28842 -253.792254 
L 624.794367 -253.945508 
L 621.300314 -268.683449 
L 617.806261 -222.937086 
L 614.312208 -313.433659 
L 610.818155 -222.809375 
L 607.324102 -235.784892 
L 603.83005 -236.0914 
L 600.335997 -292.514468 
L 596.841944 -243.090006 
L 593.347891 -245.771954 
L 589.853838 -243.958447 
L 586.359785 -246.180632 
L 582.865732 -209.75723 
L 579.37168 -260.458809 
L 575.877627 -215.376549 
L 572.383574 -247.278953 
L 568.889521 -254.124305 
L 565.395468 -226.385305 
L 561.901415 -223.728899 
L 558.407362 -241.991685 
L 554.913309 -242.247109 
L 551.419257 -284.417541 
L 547.925204 -215.580887 
L 544.431151 -219.131275 
L 540.937098 -258.262167 
L 537.443045 -217.087887 
L 533.948992 -227.304829 
L 530.454939 -221.813223 
L 526.960887 -252.66839 
L 523.466834 -285.592489 
L 519.972781 -247.662088 
L 516.478728 -249.884273 
L 512.984675 -252.872729 
L 509.490622 -245.261107 
L 505.996569 -240.408059 
L 502.502517 -223.550103 
L 499.008464 -227.841219 
L 495.514411 -234.712113 
L 492.020358 -196.424119 
L 488.526305 -244.877971 
L 485.032252 -223.269137 
L 481.538199 -210.242535 
L 478.044146 -210.62567 
L 474.550094 -231.161725 
L 471.056041 -192.107461 
L 467.561988 -242.655786 
L 464.067935 -213.33316 
L 460.573882 -189.016836 
L 457.079829 -223.320222 
L 453.585776 -252.438509 
L 450.091724 -212.234839 
L 446.597671 -214.686905 
L 443.103618 -202.375489 
L 439.609565 -210.830009 
L 436.115512 -210.957721 
L 432.621459 -236.551163 
L 429.127406 -215.887396 
L 425.633354 -230.548709 
L 422.139301 -202.17115 
L 418.645248 -247.151241 
L 415.151195 -192.771562 
L 411.657142 -177.727114 
L 408.163089 -196.475204 
L 404.669036 -200.3321 
L 401.174983 -215.759684 
L 397.680931 -234.609944 
L 394.186878 -214.022804 
L 390.692825 -206.666605 
L 387.198772 -202.5032 
L 383.704719 -259.156149 
L 380.210666 -209.195298 
L 376.716613 -190.012988 
L 373.222561 -210.881094 
L 369.728508 -233.511622 
L 366.234455 -193.435663 
L 362.740402 -183.039924 
L 359.246349 -188.889124 
L 355.752296 -178.902062 
L 352.258243 -177.063012 
L 348.764191 -190.47275 
L 345.270138 -174.662031 
L 341.776085 -208.965417 
L 338.282032 -182.503534 
L 334.787979 -177.982537 
L 331.293926 -199.719083 
L 327.799873 -182.631246 
L 324.30582 -170.243203 
L 320.811768 -157.548651 
L 317.317715 -163.219055 
L 313.823662 -169.374763 
L 310.329609 -163.883156 
L 306.835556 -162.657123 
L 303.341503 -180.306892 
L 299.84745 -166.156426 
L 296.353398 -163.500021 
L 292.859345 -151.444028 
L 289.365292 -165.747748 
L 285.871239 -143.423728 
L 282.377186 -170.600796 
L 278.883133 -143.117219 
L 275.38908 -153.20645 
L 271.895028 -146.029048 
L 268.400975 -149.937029 
L 264.906922 -151.290774 
L 261.412869 -135.148004 
L 257.918816 -133.48775 
L 254.424763 -148.276775 
L 250.93071 -132.976903 
L 247.436657 -134.688241 
L 243.942605 -131.699785 
L 240.448552 -117.140642 
L 236.954499 -112.03217 
L 233.460446 -112.364221 
L 229.966393 -101.687515 
L 226.47234 -119.030776 
L 222.978287 -109.145884 
L 219.484235 -109.043714 
L 215.990182 -100.614736 
L 212.496129 -91.138522 
L 209.002076 -89.17176 
L 205.508023 -88.916337 
L 202.01397 -112.90061 
L 198.519917 -87.128372 
L 195.025865 -79.976512 
L 191.531812 -75.225633 
L 188.037759 -78.060835 
L 184.543706 -70.091619 
L 181.049653 -69.172094 
L 177.5556 -65.11086 
L 174.061547 -64.293504 
L 170.567494 -62.40337 
L 167.073442 -58.623101 
L 163.579389 -56.375373 
L 160.085336 -56.98839 
L 156.591283 -56.55417 
L 153.09723 -52.467393 
L 149.603177 -52.671731 
L 146.109124 -50.807139 
L 142.615072 -48.380615 
L 139.121019 -46.899159 
L 135.626966 -47.052413 
L 132.132913 -44.676974 
L 128.63886 -43.169974 
L 125.144807 -43.655279 
L 121.650754 -42.940093 
L 118.156702 -42.327077 
L 114.662649 -41.81623 
L 111.168596 -41.305382 
L 107.674543 -40.871162 
L 104.18049 -40.590196 
L 100.686437 -40.4114 
L 97.192384 -40.385858 
L 93.698331 -40.4114 
L 90.204279 -40.4114 
L 86.710226 -40.334773 
L 83.216173 -39.97718 
L 79.72212 -40.002722 
L 76.228067 -39.849468 
L 72.734014 -39.772841 
L 69.239961 -40.028265 
L 65.745909 -39.87501 
L 62.251856 -39.849468 
L 58.757803 -39.772841 
L 55.26375 -39.721756 
z
" style="stroke: #cf222e; stroke-opacity: 0.2"/>
    </defs>
    <g clip-path="url(#pa12842c20c)">
     <use xlink:href="#m2da464ae5c" x="0" y="422.889687" style="fill: #cf222e; fill-opacity: 0.2; stroke: #cf222e; stroke-opacity: 0.2"/>
    </g>
   </g>
   <g id="FillBetweenPolyCollection_2">
    <defs>
     <path id="m07ebfc0c02" d="M 55.26375 -39.517417 
L 55.26375 -39.491875 
L 58.757803 -39.491875 
L 62.251856 -39.491875 
L 65.745909 -39.491875 
L 69.239961 -39.491875 
L 72.734014 -39.491875 
L 76.228067 -39.491875 
L 79.72212 -39.491875 
L 83.216173 -39.491875 
L 86.710226 -39.491875 
L 90.204279 -39.491875 
L 93.698331 -39.491875 
L 97.192384 -39.491875 
L 100.686437 -39.491875 
L 104.18049 -39.491875 
L 107.674543 -39.491875 
L 111.168596 -39.491875 
L 114.662649 -39.491875 
L 118.156702 -39.491875 
L 121.650754 -39.491875 
L 125.144807 -39.491875 
L 128.63886 -39.491875 
L 132.132913 -39.491875 
L 135.626966 -39.491875 
L 139.121019 -39.491875 
L 142.615072 -39.491875 
L 146.109124 -39.491875 
L 149.603177 -39.491875 
L 153.09723 -39.491875 
L 156.591283 -39.491875 
L 160.085336 -39.491875 
L 163.579389 -39.491875 
L 167.073442 -39.491875 
L 170.567494 -39.491875 
L 174.061547 -39.491875 
L 177.5556 -39.491875 
L 181.049653 -39.491875 
L 184.543706 -39.491875 
L 188.037759 -39.491875 
L 191.531812 -39.491875 
L 195.025865 -39.491875 
L 198.519917 -39.491875 
L 202.01397 -39.491875 
L 205.508023 -39.491875 
L 209.002076 -39.491875 
L 212.496129 -39.491875 
L 215.990182 -39.491875 
L 219.484235 -39.491875 
L 222.978287 -39.491875 
L 226.47234 -39.491875 
L 229.966393 -39.491875 
L 233.460446 -39.491875 
L 236.954499 -39.491875 
L 240.448552 -39.491875 
L 243.942605 -39.491875 
L 247.436657 -39.491875 
L 250.93071 -39.491875 
L 254.424763 -39.491875 
L 257.918816 -39.491875 
L 261.412869 -39.491875 
L 264.906922 -39.491875 
L 268.400975 -39.491875 
L 271.895028 -39.491875 
L 275.38908 -39.491875 
L 278.883133 -39.491875 
L 282.377186 -39.491875 
L 285.871239 -39.491875 
L 289.365292 -39.491875 
L 292.859345 -39.491875 
L 296.353398 -39.491875 
L 299.84745 -39.491875 
L 303.341503 -39.491875 
L 306.835556 -39.491875 
L 310.329609 -39.491875 
L 313.823662 -39.491875 
L 317.317715 -39.491875 
L 320.811768 -39.491875 
L 324.30582 -39.491875 
L 327.799873 -39.491875 
L 331.293926 -39.491875 
L 334.787979 -39.491875 
L 338.282032 -39.491875 
L 341.776085 -39.491875 
L 345.270138 -39.491875 
L 348.764191 -39.491875 
L 352.258243 -39.491875 
L 355.752296 -39.491875 
L 359.246349 -39.491875 
L 362.740402 -39.491875 
L 366.234455 -39.491875 
L 369.728508 -39.491875 
L 373.222561 -39.491875 
L 376.716613 -39.491875 
L 380.210666 -39.491875 
L 383.704719 -39.491875 
L 387.198772 -39.491875 
L 390.692825 -39.491875 
L 394.186878 -39.491875 
L 397.680931 -39.491875 
L 401.174983 -39.491875 
L 404.669036 -39.491875 
L 408.163089 -39.491875 
L 411.657142 -39.491875 
L 415.151195 -39.491875 
L 418.645248 -39.491875 
L 422.139301 -39.491875 
L 425.633354 -39.491875 
L 429.127406 -39.491875 
L 432.621459 -39.491875 
L 436.115512 -39.491875 
L 439.609565 -39.491875 
L 443.103618 -39.491875 
L 446.597671 -39.491875 
L 450.091724 -39.491875 
L 453.585776 -39.491875 
L 457.079829 -39.491875 
L 460.573882 -39.491875 
L 464.067935 -39.491875 
L 467.561988 -39.491875 
L 471.056041 -39.491875 
L 474.550094 -39.491875 
L 478.044146 -39.491875 
L 481.538199 -39.491875 
L 485.032252 -39.491875 
L 488.526305 -39.491875 
L 492.020358 -39.491875 
L 495.514411 -39.491875 
L 499.008464 -39.491875 
L 502.502517 -39.491875 
L 505.996569 -39.491875 
L 509.490622 -39.491875 
L 512.984675 -39.491875 
L 516.478728 -39.491875 
L 519.972781 -39.491875 
L 523.466834 -39.491875 
L 526.960887 -39.491875 
L 530.454939 -39.491875 
L 533.948992 -39.491875 
L 537.443045 -39.491875 
L 540.937098 -39.491875 
L 544.431151 -39.491875 
L 547.925204 -39.491875 
L 551.419257 -39.491875 
L 554.913309 -39.491875 
L 558.407362 -39.491875 
L 561.901415 -39.491875 
L 565.395468 -39.491875 
L 568.889521 -39.491875 
L 572.383574 -39.491875 
L 575.877627 -39.491875 
L 579.37168 -39.491875 
L 582.865732 -39.491875 
L 586.359785 -39.491875 
L 589.853838 -39.491875 
L 593.347891 -39.491875 
L 596.841944 -39.491875 
L 600.335997 -39.491875 
L 603.83005 -39.491875 
L 607.324102 -39.491875 
L 610.818155 -39.491875 
L 614.312208 -39.491875 
L 617.806261 -39.491875 
L 621.300314 -39.491875 
L 624.794367 -39.491875 
L 628.28842 -39.491875 
L 631.782472 -39.491875 
L 635.276525 -39.491875 
L 638.770578 -39.491875 
L 642.264631 -39.491875 
L 645.758684 -39.491875 
L 649.252737 -39.491875 
L 652.74679 -39.491875 
L 656.240843 -39.491875 
L 659.734895 -39.491875 
L 663.228948 -39.491875 
L 666.723001 -39.491875 
L 670.217054 -39.491875 
L 673.711107 -39.491875 
L 677.20516 -39.491875 
L 680.699213 -39.491875 
L 684.193265 -39.491875 
L 687.687318 -39.491875 
L 691.181371 -39.491875 
L 694.675424 -39.491875 
L 698.169477 -39.491875 
L 701.66353 -39.491875 
L 705.157583 -39.491875 
L 708.651635 -39.491875 
L 712.145688 -39.491875 
L 715.639741 -39.491875 
L 719.133794 -39.491875 
L 722.627847 -39.491875 
L 726.1219 -39.491875 
L 729.615953 -39.491875 
L 733.110006 -39.491875 
L 736.604058 -39.491875 
L 740.098111 -39.491875 
L 743.592164 -39.491875 
L 747.086217 -39.491875 
L 750.58027 -39.491875 
L 754.074323 -39.491875 
L 757.568376 -39.491875 
L 761.062428 -39.491875 
L 764.556481 -39.491875 
L 768.050534 -39.491875 
L 771.544587 -39.491875 
L 775.03864 -39.491875 
L 778.532693 -39.491875 
L 782.026746 -39.491875 
L 785.520798 -39.491875 
L 789.014851 -39.491875 
L 792.508904 -39.491875 
L 796.002957 -39.491875 
L 799.49701 -39.491875 
L 802.991063 -39.491875 
L 806.485116 -39.491875 
L 809.979169 -39.491875 
L 813.473221 -39.491875 
L 816.967274 -39.491875 
L 820.461327 -39.491875 
L 823.95538 -39.491875 
L 827.449433 -39.491875 
L 830.943486 -39.491875 
L 834.437539 -39.491875 
L 837.931591 -39.491875 
L 841.425644 -39.491875 
L 844.919697 -39.491875 
L 848.41375 -39.491875 
L 848.41375 -144.164456 
L 848.41375 -144.164456 
L 844.919697 -146.923031 
L 841.425644 -142.376491 
L 837.931591 -141.571907 
L 834.437539 -141.188771 
L 830.943486 -143.691922 
L 827.449433 -144.777472 
L 823.95538 -140.192619 
L 820.461327 -143.410956 
L 816.967274 -137.829951 
L 813.473221 -136.808257 
L 809.979169 -137.587299 
L 806.485116 -138.238629 
L 802.991063 -142.759626 
L 799.49701 -145.416031 
L 796.002957 -145.709769 
L 792.508904 -140.984432 
L 789.014851 -140.499128 
L 785.520798 -140.230933 
L 782.026746 -135.86319 
L 778.532693 -137.536214 
L 775.03864 -137.81718 
L 771.544587 -138.532366 
L 768.050534 -133.845344 
L 764.556481 -133.768716 
L 761.062428 -133.308954 
L 757.568376 -131.354964 
L 754.074323 -132.708709 
L 750.58027 -133.653776 
L 747.086217 -130.512066 
L 743.592164 -135.786563 
L 740.098111 -134.100767 
L 736.604058 -132.874734 
L 733.110006 -133.500522 
L 729.615953 -130.294956 
L 726.1219 -126.284806 
L 722.627847 -122.64502 
L 719.133794 -122.261884 
L 715.639741 -121.227419 
L 712.145688 -127.970601 
L 708.651635 -127.95783 
L 705.157583 -125.773959 
L 701.66353 -124.905518 
L 698.169477 -125.390823 
L 694.675424 -131.648701 
L 691.181371 -127.127703 
L 687.687318 -124.560697 
L 684.193265 -127.051076 
L 680.699213 -123.29635 
L 677.20516 -126.246492 
L 673.711107 -127.549152 
L 670.217054 -122.504537 
L 666.723001 -129.452058 
L 663.228948 -134.075225 
L 659.734895 -124.931061 
L 656.240843 -129.247719 
L 652.74679 -128.06 
L 649.252737 -130.154473 
L 645.758684 -125.837814 
L 642.264631 -130.754718 
L 638.770578 -124.586239 
L 635.276525 -120.754885 
L 631.782472 -122.64502 
L 628.28842 -126.323119 
L 624.794367 -123.334663 
L 621.300314 -124.611781 
L 617.806261 -119.758733 
L 614.312208 -120.499462 
L 610.818155 -121.125249 
L 607.324102 -121.661639 
L 603.83005 -121.904291 
L 600.335997 -120.818741 
L 596.841944 -122.364054 
L 593.347891 -123.206952 
L 589.853838 -120.742114 
L 586.359785 -120.525004 
L 582.865732 -119.899216 
L 579.37168 -115.416533 
L 575.877627 -121.802122 
L 572.383574 -122.951528 
L 568.889521 -123.781655 
L 565.395468 -123.104782 
L 561.901415 -124.739493 
L 558.407362 -121.02308 
L 554.913309 -123.462375 
L 551.419257 -122.721647 
L 547.925204 -122.964299 
L 544.431151 -120.818741 
L 540.937098 -119.375598 
L 537.443045 -121.865978 
L 533.948992 -122.351283 
L 530.454939 -120.971995 
L 526.960887 -123.781655 
L 523.466834 -123.155867 
L 519.972781 -120.167411 
L 516.478728 -120.473919 
L 512.984675 -117.281125 
L 509.490622 -118.813666 
L 505.996569 -116.221117 
L 502.502517 -113.922305 
L 499.008464 -111.112645 
L 495.514411 -117.868599 
L 492.020358 -115.633643 
L 488.526305 -116.69365 
L 485.032252 -116.923532 
L 481.538199 -117.370523 
L 478.044146 -112.338679 
L 474.550094 -115.365448 
L 471.056041 -116.233888 
L 467.561988 -110.94662 
L 464.067935 -113.603025 
L 460.573882 -109.018172 
L 457.079829 -113.322059 
L 453.585776 -113.066636 
L 450.091724 -111.712891 
L 446.597671 -109.299138 
L 443.103618 -113.104949 
L 439.609565 -111.087103 
L 436.115512 -106.374538 
L 432.621459 -108.162503 
L 429.127406 -113.832906 
L 425.633354 -107.319605 
L 422.139301 -107.37069 
L 418.645248 -107.230207 
L 415.151195 -107.345148 
L 411.657142 -106.463936 
L 408.163089 -111.240357 
L 404.669036 -105.825377 
L 401.174983 -105.4167 
L 397.680931 -108.405155 
L 394.186878 -102.313303 
L 390.692825 -107.472859 
L 387.198772 -107.268521 
L 383.704719 -106.221284 
L 380.210666 -104.305607 
L 376.716613 -106.668275 
L 373.222561 -107.434546 
L 369.728508 -104.727056 
L 366.234455 -105.161276 
L 362.740402 -103.692591 
L 359.246349 -105.008022 
L 355.752296 -105.787064 
L 352.258243 -100.729677 
L 348.764191 -100.295457 
L 345.270138 -100.985101 
L 341.776085 -104.024641 
L 338.282032 -98.098814 
L 334.787979 -95.800002 
L 331.293926 -101.189439 
L 327.799873 -96.770612 
L 324.30582 -95.633977 
L 320.811768 -96.566273 
L 317.317715 -96.655671 
L 313.823662 -95.608434 
L 310.329609 -92.505038 
L 306.835556 -93.015885 
L 303.341503 -93.948181 
L 299.84745 -91.240691 
L 296.353398 -90.25731 
L 292.859345 -89.886946 
L 289.365292 -90.832014 
L 285.871239 -89.05682 
L 282.377186 -86.579211 
L 278.883133 -87.626448 
L 275.38908 -84.637992 
L 271.895028 -87.319939 
L 268.400975 -81.457968 
L 264.906922 -82.428578 
L 261.412869 -82.134841 
L 257.918816 -79.606147 
L 254.424763 -80.781096 
L 250.93071 -78.022521 
L 247.436657 -77.35842 
L 243.942605 -75.774794 
L 240.448552 -72.109465 
L 236.954499 -74.548761 
L 233.460446 -71.062229 
L 229.966393 -70.168246 
L 226.47234 -69.580772 
L 222.978287 -67.396901 
L 219.484235 -67.601239 
L 215.990182 -65.532308 
L 212.496129 -63.654945 
L 209.002076 -63.118556 
L 205.508023 -61.547701 
L 202.01397 -60.449379 
L 198.519917 -57.920686 
L 195.025865 -56.452 
L 191.531812 -54.574637 
L 188.037759 -54.025476 
L 184.543706 -52.952697 
L 181.049653 -52.480164 
L 177.5556 -50.590029 
L 174.061547 -49.810987 
L 170.567494 -49.031946 
L 167.073442 -48.610497 
L 163.579389 -47.665429 
L 160.085336 -46.503252 
L 156.591283 -45.903007 
L 153.09723 -45.404931 
L 149.603177 -44.651431 
L 146.109124 -43.98733 
L 142.615072 -43.11889 
L 139.121019 -42.569729 
L 135.626966 -42.097195 
L 132.132913 -41.573577 
L 128.63886 -41.113815 
L 125.144807 -40.883933 
L 121.650754 -40.641281 
L 118.156702 -40.360315 
L 114.662649 -40.207061 
L 111.168596 -40.028265 
L 107.674543 -39.900553 
L 104.18049 -39.836697 
L 100.686437 -39.747299 
L 97.192384 -39.708985 
L 93.698331 -39.6579 
L 90.204279 -39.632358 
L 86.710226 -39.606816 
L 83.216173 -39.606816 
L 79.72212 -39.581273 
L 76.228067 -39.555731 
L 72.734014 -39.555731 
L 69.239961 -39.54296 
L 65.745909 -39.530189 
L 62.251856 -39.530189 
L 58.757803 -39.530189 
L 55.26375 -39.517417 
z
" style="stroke: #1a7f37; stroke-opacity: 0.25"/>
    </defs>
    <g clip-path="url(#pa12842c20c)">
     <use xlink:href="#m07ebfc0c02" x="0" y="422.889687" style="fill: #1a7f37; fill-opacity: 0.25; stroke: #1a7f37; stroke-opacity: 0.25"/>
    </g>
   </g>
   <g id="line2d_21">
    <path d="M 55.26375 383.167931 
L 69.239961 382.861423 
L 72.734014 383.116847 
L 83.216173 382.912508 
L 86.710226 382.554915 
L 93.698331 382.478288 
L 100.686437 382.478288 
L 107.674543 382.018525 
L 114.662649 381.073458 
L 121.650754 379.949594 
L 125.144807 379.234408 
L 128.63886 379.719713 
L 132.132913 378.212714 
L 135.626966 375.837275 
L 139.121019 375.990529 
L 142.615072 374.509072 
L 146.109124 372.082548 
L 149.603177 370.217956 
L 153.09723 370.422295 
L 156.591283 366.335518 
L 160.085336 365.901298 
L 163.579389 366.514314 
L 167.073442 364.266587 
L 170.567494 360.486318 
L 174.061547 358.596183 
L 177.5556 357.778828 
L 181.049653 353.717593 
L 184.543706 352.798068 
L 188.037759 344.828853 
L 191.531812 347.664054 
L 195.025865 342.913176 
L 198.519917 335.761316 
L 202.01397 309.989077 
L 205.508023 333.973351 
L 209.002076 333.717927 
L 212.496129 331.751166 
L 215.990182 322.274951 
L 219.484235 313.845973 
L 222.978287 313.743804 
L 226.47234 303.858911 
L 229.966393 321.202172 
L 233.460446 310.525467 
L 236.954499 310.857517 
L 240.448552 305.749046 
L 243.942605 291.189902 
L 247.436657 288.201446 
L 250.93071 289.912784 
L 254.424763 274.612912 
L 257.918816 289.401937 
L 261.412869 287.741684 
L 264.906922 271.598914 
L 268.400975 272.952659 
L 271.895028 276.860639 
L 275.38908 269.683237 
L 278.883133 279.772468 
L 282.377186 252.288892 
L 285.871239 279.46596 
L 289.365292 257.14194 
L 292.859345 271.44566 
L 296.353398 259.389667 
L 299.84745 256.733262 
L 303.341503 242.582796 
L 306.835556 260.232565 
L 310.329609 259.006532 
L 313.823662 253.514925 
L 317.317715 259.670633 
L 320.811768 265.341036 
L 327.799873 240.258441 
L 331.293926 223.170604 
L 334.787979 244.90715 
L 338.282032 240.386153 
L 341.776085 213.924271 
L 345.270138 248.227657 
L 348.764191 232.416937 
L 352.258243 245.826675 
L 355.752296 243.987625 
L 359.246349 234.000564 
L 362.740402 239.849764 
L 366.234455 229.454024 
L 369.728508 189.378065 
L 373.222561 212.008594 
L 376.716613 232.8767 
L 380.210666 213.694389 
L 383.704719 163.733538 
L 387.198772 220.386487 
L 390.692825 216.223083 
L 394.186878 208.866884 
L 397.680931 188.279744 
L 401.174983 207.130004 
L 404.669036 222.557588 
L 408.163089 226.414483 
L 411.657142 245.162574 
L 415.151195 230.118125 
L 418.645248 175.738446 
L 422.139301 220.718538 
L 425.633354 192.340979 
L 429.127406 207.002292 
L 432.621459 186.338525 
L 436.115512 211.931967 
L 439.609565 212.059679 
L 443.103618 220.514199 
L 446.597671 208.202783 
L 450.091724 210.654849 
L 453.585776 170.451178 
L 457.079829 199.569466 
L 460.573882 233.872852 
L 464.067935 209.556528 
L 467.561988 180.233901 
L 471.056041 230.782227 
L 474.550094 191.727962 
L 478.044146 212.264017 
L 481.538199 212.647153 
L 485.032252 199.62055 
L 488.526305 178.011716 
L 492.020358 226.465568 
L 495.514411 188.177574 
L 499.008464 195.048469 
L 502.502517 199.339585 
L 505.996569 182.481629 
L 509.490622 177.628581 
L 512.984675 170.016958 
L 516.478728 173.005414 
L 519.972781 175.227599 
L 523.466834 137.297198 
L 526.960887 170.221297 
L 530.454939 201.076465 
L 533.948992 195.584858 
L 537.443045 205.801801 
L 540.937098 164.627521 
L 544.431151 203.758412 
L 547.925204 207.3088 
L 551.419257 138.472147 
L 554.913309 180.642579 
L 558.407362 180.898002 
L 561.901415 199.160788 
L 565.395468 196.504383 
L 568.889521 168.765383 
L 572.383574 175.610734 
L 575.877627 207.513139 
L 579.37168 162.430878 
L 582.865732 213.132458 
L 586.359785 176.709056 
L 589.853838 178.931241 
L 593.347891 177.117734 
L 596.841944 179.799681 
L 600.335997 130.375219 
L 603.83005 186.798287 
L 607.324102 187.104795 
L 610.818155 200.080313 
L 614.312208 109.456029 
L 617.806261 199.952601 
L 621.300314 154.206239 
L 624.794367 168.944179 
L 628.28842 169.097433 
L 631.782472 183.860916 
L 635.276525 163.810165 
L 638.770578 154.206239 
L 642.264631 134.257658 
L 645.758684 186.798287 
L 649.252737 160.489659 
L 652.74679 173.541804 
L 656.240843 171.370703 
L 659.734895 125.087951 
L 663.228948 145.700634 
L 666.723001 191.70242 
L 670.217054 174.333617 
L 673.711107 191.651335 
L 677.20516 126.748205 
L 680.699213 154.844798 
L 684.193265 170.629975 
L 687.687318 132.54632 
L 691.181371 110.733146 
L 694.675424 155.074679 
L 698.169477 160.438574 
L 701.66353 163.324861 
L 705.157583 149.915123 
L 708.651635 139.468299 
L 712.145688 195.738112 
L 715.639741 195.508231 
L 719.133794 167.820315 
L 722.627847 176.530259 
L 726.1219 168.203451 
L 729.615953 171.88155 
L 733.110006 167.105129 
L 736.604058 179.850766 
L 740.098111 148.918971 
L 743.592164 145.087617 
L 747.086217 192.187724 
L 750.58027 150.936817 
L 754.074323 131.064863 
L 757.568376 150.553682 
L 761.062428 170.808771 
L 764.556481 141.613857 
L 768.050534 100.797169 
L 771.544587 154.104069 
L 775.03864 121.614191 
L 778.532693 117.450787 
L 782.026746 167.258384 
L 785.520798 113.517263 
L 789.014851 141.945907 
L 792.508904 120.234903 
L 796.002957 118.012718 
L 799.49701 135.330437 
L 802.991063 111.984722 
L 806.485116 160.004354 
L 809.979169 162.379793 
L 813.473221 69.252358 
L 816.967274 95.790867 
L 820.461327 110.758689 
L 823.95538 143.350737 
L 827.449433 139.16179 
L 830.943486 111.780383 
L 834.437539 177.041106 
L 837.931591 124.755901 
L 841.425644 159.467965 
L 844.919697 105.394794 
L 848.41375 104.654065 
L 848.41375 104.654065 
" clip-path="url(#pa12842c20c)" style="fill: none; stroke: #cf222e; stroke-opacity: 0.8; stroke-width: 1.5; stroke-linecap: square"/>
   </g>
   <g id="line2d_22">
    <path d="M 55.26375 383.37227 
L 100.686437 383.142389 
L 114.662649 382.682626 
L 118.156702 382.529372 
L 132.132913 381.31611 
L 142.615072 379.770798 
L 146.109124 378.902358 
L 156.591283 376.986681 
L 160.085336 376.386435 
L 163.579389 375.224258 
L 167.073442 374.279191 
L 170.567494 373.857742 
L 177.5556 372.299658 
L 181.049653 370.409524 
L 184.543706 369.93699 
L 188.037759 368.864211 
L 191.531812 368.31505 
L 195.025865 366.437687 
L 198.519917 364.969002 
L 202.01397 362.440308 
L 205.508023 361.341987 
L 209.002076 359.771132 
L 212.496129 359.234742 
L 215.990182 357.357379 
L 219.484235 355.288448 
L 222.978287 355.492787 
L 226.47234 353.308915 
L 229.966393 352.721441 
L 233.460446 351.827459 
L 236.954499 348.340927 
L 240.448552 350.780222 
L 243.942605 347.114894 
L 247.436657 345.531268 
L 250.93071 344.867166 
L 254.424763 342.108592 
L 257.918816 343.28354 
L 261.412869 340.754847 
L 264.906922 340.46111 
L 268.400975 341.431719 
L 271.895028 335.569748 
L 275.38908 338.251696 
L 278.883133 335.26324 
L 282.377186 336.310477 
L 285.871239 333.832868 
L 289.365292 332.057674 
L 292.859345 333.002741 
L 296.353398 332.632377 
L 299.84745 331.648996 
L 303.341503 328.941506 
L 306.835556 329.873802 
L 310.329609 330.38465 
L 313.823662 327.281253 
L 317.317715 326.234016 
L 320.811768 326.323415 
L 324.30582 327.255711 
L 327.799873 326.119076 
L 331.293926 321.700248 
L 334.787979 327.089685 
L 338.282032 324.790873 
L 341.776085 318.865046 
L 345.270138 321.904587 
L 348.764191 322.594231 
L 352.258243 322.16001 
L 355.752296 317.102624 
L 359.246349 317.881666 
L 362.740402 319.197097 
L 366.234455 317.728411 
L 369.728508 318.162632 
L 373.222561 315.455142 
L 376.716613 316.221412 
L 380.210666 318.58408 
L 383.704719 316.668404 
L 387.198772 315.621167 
L 390.692825 315.416828 
L 394.186878 320.576384 
L 397.680931 314.484532 
L 401.174983 317.472988 
L 404.669036 317.06431 
L 408.163089 311.64933 
L 411.657142 316.425751 
L 415.151195 315.54454 
L 418.645248 315.65948 
L 422.139301 315.518998 
L 425.633354 315.570082 
L 429.127406 309.056781 
L 432.621459 314.727184 
L 436.115512 316.515149 
L 439.609565 311.802585 
L 443.103618 309.784738 
L 446.597671 313.59055 
L 450.091724 311.176797 
L 453.585776 309.823052 
L 457.079829 309.567628 
L 460.573882 313.871515 
L 464.067935 309.286662 
L 467.561988 311.943067 
L 471.056041 306.655799 
L 474.550094 307.52424 
L 478.044146 310.551009 
L 481.538199 305.519165 
L 485.032252 305.966156 
L 488.526305 306.196037 
L 492.020358 307.256045 
L 495.514411 305.021089 
L 499.008464 311.777042 
L 502.502517 308.967383 
L 505.996569 306.668571 
L 509.490622 304.076021 
L 512.984675 305.608563 
L 516.478728 302.415768 
L 519.972781 302.722276 
L 523.466834 299.733821 
L 526.960887 299.108033 
L 530.454939 301.917692 
L 533.948992 300.538405 
L 537.443045 301.02371 
L 540.937098 303.51409 
L 544.431151 302.070946 
L 547.925204 299.925388 
L 551.419257 300.168041 
L 554.913309 299.427312 
L 558.407362 301.866607 
L 561.901415 298.150194 
L 565.395468 299.784905 
L 568.889521 299.108033 
L 572.383574 299.938159 
L 575.877627 301.087566 
L 579.37168 307.473155 
L 582.865732 302.990471 
L 586.359785 302.364683 
L 589.853838 302.147573 
L 593.347891 299.682736 
L 596.841944 300.525634 
L 600.335997 302.070946 
L 603.83005 300.985396 
L 607.324102 301.228049 
L 614.312208 302.390226 
L 617.806261 303.130954 
L 621.300314 298.277906 
L 624.794367 299.555024 
L 628.28842 296.566568 
L 631.782472 300.244668 
L 635.276525 302.134802 
L 638.770578 298.303449 
L 642.264631 292.134969 
L 645.758684 297.051873 
L 649.252737 292.735215 
L 652.74679 294.829688 
L 656.240843 293.641968 
L 659.734895 297.958627 
L 663.228948 288.814463 
L 666.723001 293.437629 
L 670.217054 300.385151 
L 673.711107 295.340535 
L 677.20516 296.643195 
L 680.699213 299.593338 
L 684.193265 295.838611 
L 687.687318 298.328991 
L 691.181371 295.761984 
L 694.675424 291.240987 
L 698.169477 297.498864 
L 701.66353 297.984169 
L 705.157583 297.115729 
L 708.651635 294.931857 
L 712.145688 294.919086 
L 715.639741 301.662269 
L 719.133794 300.627803 
L 722.627847 300.244668 
L 726.1219 296.604882 
L 729.615953 292.594732 
L 733.110006 289.389166 
L 736.604058 290.014954 
L 740.098111 288.78892 
L 743.592164 287.103125 
L 747.086217 292.377622 
L 750.58027 289.235912 
L 754.074323 290.180979 
L 757.568376 291.534724 
L 761.062428 289.580734 
L 764.556481 289.120971 
L 768.050534 289.044344 
L 771.544587 284.357321 
L 775.03864 285.072507 
L 778.532693 285.353473 
L 782.026746 287.026498 
L 785.520798 282.658755 
L 789.014851 282.39056 
L 792.508904 281.905255 
L 796.002957 277.179919 
L 799.49701 277.473656 
L 802.991063 280.130061 
L 806.485116 284.651059 
L 809.979169 285.302389 
L 813.473221 286.081431 
L 816.967274 285.059736 
L 820.461327 279.478731 
L 823.95538 282.697068 
L 827.449433 278.112215 
L 830.943486 279.197765 
L 834.437539 281.700916 
L 837.931591 281.317781 
L 841.425644 280.513197 
L 844.919697 275.966657 
L 848.41375 278.725232 
L 848.41375 278.725232 
" clip-path="url(#pa12842c20c)" style="fill: none; stroke: #1a7f37; stroke-width: 2; stroke-linecap: square"/>
   </g>
   <g id="line2d_23">
    <path d="M 55.26375 383.37227 
L 100.686437 383.142389 
L 114.662649 382.682626 
L 118.156702 382.529372 
L 132.132913 381.31611 
L 142.615072 379.770798 
L 146.109124 378.902358 
L 156.591283 376.986681 
L 160.085336 376.386435 
L 163.579389 375.224258 
L 167.073442 374.279191 
L 170.567494 373.857742 
L 177.5556 372.299658 
L 181.049653 370.409524 
L 184.543706 369.93699 
L 188.037759 368.864211 
L 191.531812 368.31505 
L 195.025865 366.437687 
L 198.519917 364.969002 
L 202.01397 362.440308 
L 205.508023 361.341987 
L 209.002076 359.771132 
L 212.496129 359.234742 
L 215.990182 357.357379 
L 219.484235 355.288448 
L 222.978287 355.288448 
L 226.47234 353.308915 
L 229.966393 352.721441 
L 233.460446 351.827459 
L 236.954499 348.340927 
L 240.448552 348.340927 
L 243.942605 347.114894 
L 247.436657 345.531268 
L 250.93071 344.867166 
L 254.424763 342.108592 
L 257.918816 342.108592 
L 261.412869 340.754847 
L 264.906922 340.46111 
L 268.400975 340.46111 
L 271.895028 335.569748 
L 275.38908 335.569748 
L 278.883133 335.26324 
L 282.377186 335.26324 
L 285.871239 333.832868 
L 289.365292 332.057674 
L 296.353398 332.057674 
L 299.84745 331.648996 
L 303.341503 328.941506 
L 310.329609 328.941506 
L 313.823662 327.281253 
L 317.317715 326.234016 
L 324.30582 326.234016 
L 327.799873 326.119076 
L 331.293926 321.700248 
L 338.282032 321.700248 
L 341.776085 318.865046 
L 352.258243 318.865046 
L 355.752296 317.102624 
L 369.728508 317.102624 
L 373.222561 315.455142 
L 394.186878 315.416828 
L 397.680931 314.484532 
L 404.669036 314.484532 
L 408.163089 311.64933 
L 425.633354 311.64933 
L 429.127406 309.056781 
L 467.561988 309.056781 
L 471.056041 306.655799 
L 478.044146 306.655799 
L 481.538199 305.519165 
L 492.020358 305.519165 
L 495.514411 305.021089 
L 505.996569 305.021089 
L 509.490622 304.076021 
L 512.984675 304.076021 
L 516.478728 302.415768 
L 519.972781 302.415768 
L 523.466834 299.733821 
L 526.960887 299.108033 
L 558.407362 299.108033 
L 561.901415 298.150194 
L 624.794367 298.150194 
L 628.28842 296.566568 
L 638.770578 296.566568 
L 642.264631 292.134969 
L 659.734895 292.134969 
L 663.228948 288.814463 
L 740.098111 288.78892 
L 743.592164 287.103125 
L 768.050534 287.103125 
L 771.544587 284.357321 
L 782.026746 284.357321 
L 785.520798 282.658755 
L 789.014851 282.39056 
L 792.508904 281.905255 
L 796.002957 277.179919 
L 841.425644 277.179919 
L 844.919697 275.966657 
L 848.41375 275.966657 
L 848.41375 275.966657 
" clip-path="url(#pa12842c20c)" style="fill: none; stroke-dasharray: 9.25,4; stroke-dashoffset: 0; stroke: #0969da; stroke-width: 2.5"/>
   </g>
   <g id="patch_3">
    <path d="M 55.26375 383.397812 
L 55.26375 37.837812 
" style="fill: none; stroke: #d0d7de; stroke-width: 0.8; stroke-linejoin: miter; stroke-linecap: square"/>
   </g>
   <g id="patch_4">
    <path d="M 848.41375 383.397812 
L 848.41375 37.837812 
" style="fill: none; stroke: #d0d7de; stroke-width: 0.8; stroke-linejoin: miter; stroke-linecap: square"/>
   </g>
   <g id="patch_5">
    <path d="M 55.26375 383.397812 
L 848.41375 383.397812 
" style="fill: none; stroke: #d0d7de; stroke-width: 0.8; stroke-linejoin: miter; stroke-linecap: square"/>
   </g>
   <g id="patch_6">
    <path d="M 55.26375 37.837812 
L 848.41375 37.837812 
" style="fill: none; stroke: #d0d7de; stroke-width: 0.8; stroke-linejoin: miter; stroke-linecap: square"/>
   </g>
   <g id="patch_7">
    <path d="M 784.112849 257.60576 
Q 815.299806 266.511087 844.874168 274.955942 
" style="fill: none; stroke: #0969da; stroke-width: 1.5; stroke-linecap: round"/>
    <path d="M 841.577045 271.934521 
L 844.874168 274.955942 
L 840.478757 275.780787 
" style="fill: none; stroke: #0969da; stroke-width: 1.5; stroke-linecap: round"/>
   </g>
   <g id="text_13">
    <!-- Best: 841.2 -->
    <g style="fill: #0969da" transform="translate(726.1219 252.978535) scale(0.1 -0.1)">
     <defs>
      <path id="DejaVuSans-Bold-42" d="M 2456 2859 
Q 2741 2859 2887 2984 
Q 3034 3109 3034 3353 
Q 3034 3594 2887 3720 
Q 2741 3847 2456 3847 
L 1791 3847 
L 1791 2859 
L 2456 2859 
z
M 2497 819 
Q 2859 819 3042 972 
Q 3225 1125 3225 1434 
Q 3225 1738 3044 1889 
Q 2863 2041 2497 2041 
L 1791 2041 
L 1791 819 
L 2497 819 
z
M 3616 2497 
Q 4003 2384 4215 2081 
Q 4428 1778 4428 1338 
Q 4428 663 3972 331 
Q 3516 0 2584 0 
L 588 0 
L 588 4666 
L 2394 4666 
Q 3366 4666 3802 4372 
Q 4238 4078 4238 3431 
Q 4238 3091 4078 2852 
Q 3919 2613 3616 2497 
z
" transform="scale(0.015625)"/>
      <path id="DejaVuSans-Bold-73" d="M 3272 3391 
L 3272 2541 
Q 2913 2691 2578 2766 
Q 2244 2841 1947 2841 
Q 1628 2841 1473 2761 
Q 1319 2681 1319 2516 
Q 1319 2381 1436 2309 
Q 1553 2238 1856 2203 
L 2053 2175 
Q 2913 2066 3209 1816 
Q 3506 1566 3506 1031 
Q 3506 472 3093 190 
Q 2681 -91 1863 -91 
Q 1516 -91 1145 -36 
Q 775 19 384 128 
L 384 978 
Q 719 816 1070 734 
Q 1422 653 1784 653 
Q 2113 653 2278 743 
Q 2444 834 2444 1013 
Q 2444 1163 2330 1236 
Q 2216 1309 1875 1350 
L 1678 1375 
Q 931 1469 631 1722 
Q 331 1975 331 2491 
Q 331 3047 712 3315 
Q 1094 3584 1881 3584 
Q 2191 3584 2531 3537 
Q 2872 3491 3272 3391 
z
" transform="scale(0.015625)"/>
      <path id="DejaVuSans-Bold-3a" d="M 716 3500 
L 1844 3500 
L 1844 2291 
L 716 2291 
L 716 3500 
z
M 716 1209 
L 1844 1209 
L 1844 0 
L 716 0 
L 716 1209 
z
" transform="scale(0.015625)"/>
      <path id="DejaVuSans-Bold-20" transform="scale(0.015625)"/>
      <path id="DejaVuSans-Bold-38" d="M 2228 2088 
Q 1891 2088 1709 1903 
Q 1528 1719 1528 1375 
Q 1528 1031 1709 848 
Q 1891 666 2228 666 
Q 2563 666 2741 848 
Q 2919 1031 2919 1375 
Q 2919 1722 2741 1905 
Q 2563 2088 2228 2088 
z
M 1350 2484 
Q 925 2613 709 2878 
Q 494 3144 494 3541 
Q 494 4131 934 4440 
Q 1375 4750 2228 4750 
Q 3075 4750 3515 4442 
Q 3956 4134 3956 3541 
Q 3956 3144 3739 2878 
Q 3522 2613 3097 2484 
Q 3572 2353 3814 2058 
Q 4056 1763 4056 1313 
Q 4056 619 3595 264 
Q 3134 -91 2228 -91 
Q 1319 -91 855 264 
Q 391 619 391 1313 
Q 391 1763 633 2058 
Q 875 2353 1350 2484 
z
M 1631 3419 
Q 1631 3141 1786 2991 
Q 1941 2841 2228 2841 
Q 2509 2841 2662 2991 
Q 2816 3141 2816 3419 
Q 2816 3697 2662 3845 
Q 2509 3994 2228 3994 
Q 1941 3994 1786 3844 
Q 1631 3694 1631 3419 
z
" transform="scale(0.015625)"/>
      <path id="DejaVuSans-Bold-34" d="M 2356 3675 
L 1038 1722 
L 2356 1722 
L 2356 3675 
z
M 2156 4666 
L 3494 4666 
L 3494 1722 
L 4159 1722 
L 4159 850 
L 3494 850 
L 3494 0 
L 2356 0 
L 2356 850 
L 288 850 
L 288 1881 
L 2156 4666 
z
" transform="scale(0.015625)"/>
      <path id="DejaVuSans-Bold-31" d="M 750 831 
L 1813 831 
L 1813 3847 
L 722 3622 
L 722 4441 
L 1806 4666 
L 2950 4666 
L 2950 831 
L 4013 831 
L 4013 0 
L 750 0 
L 750 831 
z
" transform="scale(0.015625)"/>
      <path id="DejaVuSans-Bold-2e" d="M 653 1209 
L 1778 1209 
L 1778 0 
L 653 0 
L 653 1209 
z
" transform="scale(0.015625)"/>
      <path id="DejaVuSans-Bold-32" d="M 1844 884 
L 3897 884 
L 3897 0 
L 506 0 
L 506 884 
L 2209 2388 
Q 2438 2594 2547 2791 
Q 2656 2988 2656 3200 
Q 2656 3528 2436 3728 
Q 2216 3928 1850 3928 
Q 1569 3928 1234 3808 
Q 900 3688 519 3450 
L 519 4475 
Q 925 4609 1322 4679 
Q 1719 4750 2100 4750 
Q 2938 4750 3402 4381 
Q 3866 4013 3866 3353 
Q 3866 2972 3669 2642 
Q 3472 2313 2841 1759 
L 1844 884 
z
" transform="scale(0.015625)"/>
     </defs>
     <use xlink:href="#DejaVuSans-Bold-42"/>
     <use xlink:href="#DejaVuSans-Bold-65" transform="translate(76.220703 0)"/>
     <use xlink:href="#DejaVuSans-Bold-73" transform="translate(144.042969 0)"/>
     <use xlink:href="#DejaVuSans-Bold-74" transform="translate(203.564453 0)"/>
     <use xlink:href="#DejaVuSans-Bold-3a" transform="translate(251.367188 0)"/>
     <use xlink:href="#DejaVuSans-Bold-20" transform="translate(291.357422 0)"/>
     <use xlink:href="#DejaVuSans-Bold-38" transform="translate(326.171875 0)"/>
     <use xlink:href="#DejaVuSans-Bold-34" transform="translate(395.751953 0)"/>
     <use xlink:href="#DejaVuSans-Bold-31" transform="translate(465.332031 0)"/>
     <use xlink:href="#DejaVuSans-Bold-2e" transform="translate(534.912109 0)"/>
     <use xlink:href="#DejaVuSans-Bold-32" transform="translate(572.900391 0)"/>
    </g>
   </g>
   <g id="text_14">
    <!-- Training Progress -->
    <g style="fill: #24292f" transform="translate(382.510313 17.837812) scale(0.14 -0.14)">
     <defs>
      <path id="DejaVuSans-Bold-54" d="M 31 4666 
L 4331 4666 
L 4331 3756 
L 2784 3756 
L 2784 0 
L 1581 0 
L 1581 3756 
L 31 3756 
L 31 4666 
z
" transform="scale(0.015625)"/>
      <path id="DejaVuSans-Bold-67" d="M 2919 594 
Q 2688 288 2409 144 
Q 2131 0 1766 0 
Q 1125 0 706 504 
Q 288 1009 288 1791 
Q 288 2575 706 3076 
Q 1125 3578 1766 3578 
Q 2131 3578 2409 3434 
Q 2688 3291 2919 2981 
L 2919 3500 
L 4044 3500 
L 4044 353 
Q 4044 -491 3511 -936 
Q 2978 -1381 1966 -1381 
Q 1638 -1381 1331 -1331 
Q 1025 -1281 716 -1178 
L 716 -306 
Q 1009 -475 1290 -558 
Q 1572 -641 1856 -641 
Q 2406 -641 2662 -400 
Q 2919 -159 2919 353 
L 2919 594 
z
M 2181 2772 
Q 1834 2772 1640 2515 
Q 1447 2259 1447 1791 
Q 1447 1309 1634 1061 
Q 1822 813 2181 813 
Q 2531 813 2725 1069 
Q 2919 1325 2919 1791 
Q 2919 2259 2725 2515 
Q 2531 2772 2181 2772 
z
" transform="scale(0.015625)"/>
      <path id="DejaVuSans-Bold-50" d="M 588 4666 
L 2584 4666 
Q 3475 4666 3951 4270 
Q 4428 3875 4428 3144 
Q 4428 2409 3951 2014 
Q 3475 1619 2584 1619 
L 1791 1619 
L 1791 0 
L 588 0 
L 588 4666 
z
M 1791 3794 
L 1791 2491 
L 2456 2491 
Q 2806 2491 2997 2661 
Q 3188 2831 3188 3144 
Q 3188 3456 2997 3625 
Q 2806 3794 2456 3794 
L 1791 3794 
z
" transform="scale(0.015625)"/>
     </defs>
     <use xlink:href="#DejaVuSans-Bold-54"/>
     <use xlink:href="#DejaVuSans-Bold-72" transform="translate(57.212891 0)"/>
     <use xlink:href="#DejaVuSans-Bold-61" transform="translate(106.529297 0)"/>
     <use xlink:href="#DejaVuSans-Bold-69" transform="translate(174.009766 0)"/>
     <use xlink:href="#DejaVuSans-Bold-6e" transform="translate(208.287109 0)"/>
     <use xlink:href="#DejaVuSans-Bold-69" transform="translate(279.478516 0)"/>
     <use xlink:href="#DejaVuSans-Bold-6e" transform="translate(313.755859 0)"/>
     <use xlink:href="#DejaVuSans-Bold-67" transform="translate(384.947266 0)"/>
     <use xlink:href="#DejaVuSans-Bold-20" transform="translate(456.529297 0)"/>
     <use xlink:href="#DejaVuSans-Bold-50" transform="translate(491.34375 0)"/>
     <use xlink:href="#DejaVuSans-Bold-72" transform="translate(564.634766 0)"/>
     <use xlink:href="#DejaVuSans-Bold-6f" transform="translate(613.951172 0)"/>
     <use xlink:href="#DejaVuSans-Bold-67" transform="translate(682.652344 0)"/>
     <use xlink:href="#DejaVuSans-Bold-72" transform="translate(754.234375 0)"/>
     <use xlink:href="#DejaVuSans-Bold-65" transform="translate(803.550781 0)"/>
     <use xlink:href="#DejaVuSans-Bold-73" transform="translate(871.373047 0)"/>
     <use xlink:href="#DejaVuSans-Bold-73" transform="translate(930.894531 0)"/>
    </g>
   </g>
   <g id="legend_1">
    <g id="patch_8">
     <path d="M 62.26375 89.872187 
L 178.015312 89.872187 
Q 180.015312 89.872187 180.015312 87.872187 
L 180.015312 44.837812 
Q 180.015312 42.837812 178.015312 42.837812 
L 62.26375 42.837812 
Q 60.26375 42.837812 60.26375 44.837812 
L 60.26375 87.872187 
Q 60.26375 89.872187 62.26375 89.872187 
z
" style="fill: #ffffff; opacity: 0.8; stroke: #d0d7de; stroke-linejoin: miter"/>
    </g>
    <g id="line2d_24">
     <path d="M 64.26375 50.93625 
L 74.26375 50.93625 
L 84.26375 50.93625 
" style="fill: none; stroke: #cf222e; stroke-opacity: 0.8; stroke-width: 1.5; stroke-linecap: square"/>
    </g>
    <g id="text_15">
     <!-- Max Score -->
     <g style="fill: #24292f" transform="translate(92.26375 54.43625) scale(0.1 -0.1)">
      <defs>
       <path id="DejaVuSans-4d" d="M 628 4666 
L 1569 4666 
L 2759 1491 
L 3956 4666 
L 4897 4666 
L 4897 0 
L 4281 0 
L 4281 4097 
L 3078 897 
L 2444 897 
L 1241 4097 
L 1241 0 
L 628 0 
L 628 4666 
z
" transform="scale(0.015625)"/>
       <path id="DejaVuSans-61" d="M 2194 1759 
Q 1497 1759 1228 1600 
Q 959 1441 959 1056 
Q 959 750 1161 570 
Q 1363 391 1709 391 
Q 2188 391 2477 730 
Q 2766 1069 2766 1631 
L 2766 1759 
L 2194 1759 
z
M 3341 1997 
L 3341 0 
L 2766 0 
L 2766 531 
Q 2569 213 2275 61 
Q 1981 -91 1556 -91 
Q 1019 -91 701 211 
Q 384 513 384 1019 
Q 384 1609 779 1909 
Q 1175 2209 1959 2209 
L 2766 2209 
L 2766 2266 
Q 2766 2663 2505 2880 
Q 2244 3097 1772 3097 
Q 1472 3097 1187 3025 
Q 903 2953 641 2809 
L 641 3341 
Q 956 3463 1253 3523 
Q 1550 3584 1831 3584 
Q 2591 3584 2966 3190 
Q 3341 2797 3341 1997 
z
" transform="scale(0.015625)"/>
       <path id="DejaVuSans-78" d="M 3513 3500 
L 2247 1797 
L 3578 0 
L 2900 0 
L 1881 1375 
L 863 0 
L 184 0 
L 1544 1831 
L 300 3500 
L 978 3500 
L 1906 2253 
L 2834 3500 
L 3513 3500 
z
" transform="scale(0.015625)"/>
       <path id="DejaVuSans-20" transform="scale(0.015625)"/>
       <path id="DejaVuSans-53" d="M 3425 4513 
L 3425 3897 
Q 3066 4069 2747 4153 
Q 2428 4238 2131 4238 
Q 1616 4238 1336 4038 
Q 1056 3838 1056 3469 
Q 1056 3159 1242 3001 
Q 1428 2844 1947 2747 
L 2328 2669 
Q 3034 2534 3370 2195 
Q 3706 1856 3706 1288 
Q 3706 609 3251 259 
Q 2797 -91 1919 -91 
Q 1588 -91 1214 -16 
Q 841 59 441 206 
L 441 856 
Q 825 641 1194 531 
Q 1563 422 1919 422 
Q 2459 422 2753 634 
Q 3047 847 3047 1241 
Q 3047 1584 2836 1778 
Q 2625 1972 2144 2069 
L 1759 2144 
Q 1053 2284 737 2584 
Q 422 2884 422 3419 
Q 422 4038 858 4394 
Q 1294 4750 2059 4750 
Q 2388 4750 2728 4690 
Q 3069 4631 3425 4513 
z
" transform="scale(0.015625)"/>
       <path id="DejaVuSans-63" d="M 3122 3366 
L 3122 2828 
Q 2878 2963 2633 3030 
Q 2388 3097 2138 3097 
Q 1578 3097 1268 2742 
Q 959 2388 959 1747 
Q 959 1106 1268 751 
Q 1578 397 2138 397 
Q 2388 397 2633 464 
Q 2878 531 3122 666 
L 3122 134 
Q 2881 22 2623 -34 
Q 2366 -91 2075 -91 
Q 1284 -91 818 406 
Q 353 903 353 1747 
Q 353 2603 823 3093 
Q 1294 3584 2113 3584 
Q 2378 3584 2631 3529 
Q 2884 3475 3122 3366 
z
" transform="scale(0.015625)"/>
       <path id="DejaVuSans-6f" d="M 1959 3097 
Q 1497 3097 1228 2736 
Q 959 2375 959 1747 
Q 959 1119 1226 758 
Q 1494 397 1959 397 
Q 2419 397 2687 759 
Q 2956 1122 2956 1747 
Q 2956 2369 2687 2733 
Q 2419 3097 1959 3097 
z
M 1959 3584 
Q 2709 3584 3137 3096 
Q 3566 2609 3566 1747 
Q 3566 888 3137 398 
Q 2709 -91 1959 -91 
Q 1206 -91 779 398 
Q 353 888 353 1747 
Q 353 2609 779 3096 
Q 1206 3584 1959 3584 
z
" transform="scale(0.015625)"/>
       <path id="DejaVuSans-72" d="M 2631 2963 
Q 2534 3019 2420 3045 
Q 2306 3072 2169 3072 
Q 1681 3072 1420 2755 
Q 1159 2438 1159 1844 
L 1159 0 
L 581 0 
L 581 3500 
L 1159 3500 
L 1159 2956 
Q 1341 3275 1631 3429 
Q 1922 3584 2338 3584 
Q 2397 3584 2469 3576 
Q 2541 3569 2628 3553 
L 2631 2963 
z
" transform="scale(0.015625)"/>
       <path id="DejaVuSans-65" d="M 3597 1894 
L 3597 1613 
L 953 1613 
Q 991 1019 1311 708 
Q 1631 397 2203 397 
Q 2534 397 2845 478 
Q 3156 559 3463 722 
L 3463 178 
Q 3153 47 2828 -22 
Q 2503 -91 2169 -91 
Q 1331 -91 842 396 
Q 353 884 353 1716 
Q 353 2575 817 3079 
Q 1281 3584 2069 3584 
Q 2775 3584 3186 3129 
Q 3597 2675 3597 1894 
z
M 3022 2063 
Q 3016 2534 2758 2815 
Q 2500 3097 2075 3097 
Q 1594 3097 1305 2825 
Q 1016 2553 972 2059 
L 3022 2063 
z
" transform="scale(0.015625)"/>
      </defs>
      <use xlink:href="#DejaVuSans-4d"/>
      <use xlink:href="#DejaVuSans-61" transform="translate(86.279297 0)"/>
      <use xlink:href="#DejaVuSans-78" transform="translate(147.558594 0)"/>
      <use xlink:href="#DejaVuSans-20" transform="translate(206.738281 0)"/>
      <use xlink:href="#DejaVuSans-53" transform="translate(238.525391 0)"/>
      <use xlink:href="#DejaVuSans-63" transform="translate(302.001953 0)"/>
      <use xlink:href="#DejaVuSans-6f" transform="translate(356.982422 0)"/>
      <use xlink:href="#DejaVuSans-72" transform="translate(418.164062 0)"/>
      <use xlink:href="#DejaVuSans-65" transform="translate(457.027344 0)"/>
     </g>
    </g>
    <g id="line2d_25">
     <path d="M 64.26375 65.614375 
L 74.26375 65.614375 
L 84.26375 65.614375 
" style="fill: none; stroke: #1a7f37; stroke-width: 2; stroke-linecap: square"/>
    </g>
    <g id="text_16">
     <!-- Mean Score -->
     <g style="fill: #24292f" transform="translate(92.26375 69.114375) scale(0.1 -0.1)">
      <defs>
       <path id="DejaVuSans-6e" d="M 3513 2113 
L 3513 0 
L 2938 0 
L 2938 2094 
Q 2938 2591 2744 2837 
Q 2550 3084 2163 3084 
Q 1697 3084 1428 2787 
Q 1159 2491 1159 1978 
L 1159 0 
L 581 0 
L 581 3500 
L 1159 3500 
L 1159 2956 
Q 1366 3272 1645 3428 
Q 1925 3584 2291 3584 
Q 2894 3584 3203 3211 
Q 3513 2838 3513 2113 
z
" transform="scale(0.015625)"/>
      </defs>
      <use xlink:href="#DejaVuSans-4d"/>
      <use xlink:href="#DejaVuSans-65" transform="translate(86.279297 0)"/>
      <use xlink:href="#DejaVuSans-61" transform="translate(147.802734 0)"/>
      <use xlink:href="#DejaVuSans-6e" transform="translate(209.082031 0)"/>
      <use xlink:href="#DejaVuSans-20" transform="translate(272.460938 0)"/>
      <use xlink:href="#DejaVuSans-53" transform="translate(304.248047 0)"/>
      <use xlink:href="#DejaVuSans-63" transform="translate(367.724609 0)"/>
      <use xlink:href="#DejaVuSans-6f" transform="translate(422.705078 0)"/>
      <use xlink:href="#DejaVuSans-72" transform="translate(483.886719 0)"/>
      <use xlink:href="#DejaVuSans-65" transform="translate(522.75 0)"/>
     </g>
    </g>
    <g id="line2d_26">
     <path d="M 64.26375 80.2925 
L 74.26375 80.2925 
L 84.26375 80.2925 
" style="fill: none; stroke-dasharray: 9.25,4; stroke-dashoffset: 0; stroke: #0969da; stroke-width: 2.5"/>
    </g>
    <g id="text_17">
     <!-- Best Mean Score -->
     <g style="fill: #24292f" transform="translate(92.26375 83.7925) scale(0.1 -0.1)">
      <defs>
       <path id="DejaVuSans-42" d="M 1259 2228 
L 1259 519 
L 2272 519 
Q 2781 519 3026 730 
Q 3272 941 3272 1375 
Q 3272 1813 3026 2020 
Q 2781 2228 2272 2228 
L 1259 2228 
z
M 1259 4147 
L 1259 2741 
L 2194 2741 
Q 2656 2741 2882 2914 
Q 3109 3088 3109 3444 
Q 3109 3797 2882 3972 
Q 2656 4147 2194 4147 
L 1259 4147 
z
M 628 4666 
L 2241 4666 
Q 2963 4666 3353 4366 
Q 3744 4066 3744 3513 
Q 3744 3084 3544 2831 
Q 3344 2578 2956 2516 
Q 3422 2416 3680 2098 
Q 3938 1781 3938 1306 
Q 3938 681 3513 340 
Q 3088 0 2303 0 
L 628 0 
L 628 4666 
z
" transform="scale(0.015625)"/>
       <path id="DejaVuSans-73" d="M 2834 3397 
L 2834 2853 
Q 2591 2978 2328 3040 
Q 2066 3103 1784 3103 
Q 1356 3103 1142 2972 
Q 928 2841 928 2578 
Q 928 2378 1081 2264 
Q 1234 2150 1697 2047 
L 1894 2003 
Q 2506 1872 2764 1633 
Q 3022 1394 3022 966 
Q 3022 478 2636 193 
Q 2250 -91 1575 -91 
Q 1294 -91 989 -36 
Q 684 19 347 128 
L 347 722 
Q 666 556 975 473 
Q 1284 391 1588 391 
Q 1994 391 2212 530 
Q 2431 669 2431 922 
Q 2431 1156 2273 1281 
Q 2116 1406 1581 1522 
L 1381 1569 
Q 847 1681 609 1914 
Q 372 2147 372 2553 
Q 372 3047 722 3315 
Q 1072 3584 1716 3584 
Q 2034 3584 2315 3537 
Q 2597 3491 2834 3397 
z
" transform="scale(0.015625)"/>
       <path id="DejaVuSans-74" d="M 1172 4494 
L 1172 3500 
L 2356 3500 
L 2356 3053 
L 1172 3053 
L 1172 1153 
Q 1172 725 1289 603 
Q 1406 481 1766 481 
L 2356 481 
L 2356 0 
L 1766 0 
Q 1100 0 847 248 
Q 594 497 594 1153 
L 594 3053 
L 172 3053 
L 172 3500 
L 594 3500 
L 594 4494 
L 1172 4494 
z
" transform="scale(0.015625)"/>
      </defs>
      <use xlink:href="#DejaVuSans-42"/>
      <use xlink:href="#DejaVuSans-65" transform="translate(68.603516 0)"/>
      <use xlink:href="#DejaVuSans-73" transform="translate(130.126953 0)"/>
      <use xlink:href="#DejaVuSans-74" transform="translate(182.226562 0)"/>
      <use xlink:href="#DejaVuSans-20" transform="translate(221.435547 0)"/>
      <use xlink:href="#DejaVuSans-4d" transform="translate(253.222656 0)"/>
      <use xlink:href="#DejaVuSans-65" transform="translate(339.501953 0)"/>
      <use xlink:href="#DejaVuSans-61" transform="translate(401.025391 0)"/>
      <use xlink:href="#DejaVuSans-6e" transform="translate(462.304688 0)"/>
      <use xlink:href="#DejaVuSans-20" transform="translate(525.683594 0)"/>
      <use xlink:href="#DejaVuSans-53" transform="translate(557.470703 0)"/>
      <use xlink:href="#DejaVuSans-63" transform="translate(620.947266 0)"/>
      <use xlink:href="#DejaVuSans-6f" transform="translate(675.927734 0)"/>
      <use xlink:href="#DejaVuSans-72" transform="translate(737.109375 0)"/>
      <use xlink:href="#DejaVuSans-65" transform="translate(775.972656 0)"/>
     </g>
    </g>
   </g>
  </g>
 </g>
 <defs>
  <clipPath id="pa12842c20c">
   <rect x="55.26375" y="37.837812" width="793.15" height="345.56"/>
  </clipPath>
 </defs>
</svg>
